<?xml version="1.0" encoding="UTF-8" standalone="no"?>
<!-- Generator: Adobe Illustrator 19.0.0, SVG Export Plug-In . SVG Version: 6.00 Build 0)  -->

<svg
   xmlns:dc="http://purl.org/dc/elements/1.1/"
   xmlns:cc="http://creativecommons.org/ns#"
   xmlns:rdf="http://www.w3.org/1999/02/22-rdf-syntax-ns#"
   xmlns:svg="http://www.w3.org/2000/svg"
   xmlns="http://www.w3.org/2000/svg"
   xmlns:sodipodi="http://sodipodi.sourceforge.net/DTD/sodipodi-0.dtd"
   xmlns:inkscape="http://www.inkscape.org/namespaces/inkscape"
   version="1.1"
   id="Layer_1"
   x="0px"
   y="0px"
   viewBox="0 0 494.465 494.465"
   style="enable-background:new 0 0 494.465 494.465;"
   xml:space="preserve"
   sodipodi:docname="draw_line.svg"
   inkscape:version="0.92.5 (2060ec1f9f, 2020-04-08)"><metadata
   id="metadata85"><rdf:RDF><cc:Work
       rdf:about=""><dc:format>image/svg+xml</dc:format><dc:type
         rdf:resource="http://purl.org/dc/dcmitype/StillImage" /></cc:Work></rdf:RDF></metadata><defs
   id="defs83" /><sodipodi:namedview
   pagecolor="#ffffff"
   bordercolor="#666666"
   borderopacity="1"
   objecttolerance="10"
   gridtolerance="10"
   guidetolerance="10"
   inkscape:pageopacity="0"
   inkscape:pageshadow="2"
   inkscape:window-width="1616"
   inkscape:window-height="1123"
   id="namedview81"
   showgrid="false"
   inkscape:zoom="0.23864177"
   inkscape:cx="1514.7106"
   inkscape:cy="394.17355"
   inkscape:window-x="0"
   inkscape:window-y="0"
   inkscape:window-maximized="0"
   inkscape:current-layer="Layer_1" />








<g
   id="g50">
</g>
<g
   id="g52">
</g>
<g
   id="g54">
</g>
<g
   id="g56">
</g>
<g
   id="g58">
</g>
<g
   id="g60">
</g>
<g
   id="g62">
</g>
<g
   id="g64">
</g>
<g
   id="g66">
</g>
<g
   id="g68">
</g>
<g
   id="g70">
</g>
<g
   id="g72">
</g>
<g
   id="g74">
</g>
<g
   id="g76">
</g>
<g
   id="g78">
</g>
<g
   id="g6"
   transform="matrix(-1,0,0,1,495.20593,0)">
	<g
   id="g4">
		<path
   inkscape:connector-curvature="0"
   d="m 489.665,126.432 -121.6,-121.6 c -6.4,-6.4 -16,-6.4 -22.4,0 l -240,240 c -6.4,6.4 -6.4,16 0,22.4 6.4,6.4 16,6.4 22.4,0 l 230.4,-230.4 99.2,99.2 -230.4,230.4 c -6.4,6.4 -6.4,16 0,22.4 3.2,3.2 6.4,4.8 11.2,4.8 4.8,0 8,-1.6 11.2,-4.8 l 240,-240 c 6.4,-6.4 6.4,-16 0,-22.4 z"
   id="path2" />
	</g>
</g><g
   id="g12"
   transform="matrix(-1,0,0,1,495.20593,0)">
	<g
   id="g10">
		<path
   inkscape:connector-curvature="0"
   d="m 252.865,371.232 c -3.2,-8 -12.8,-11.2 -20.8,-8 l -184,83.2 83.2,-184 c 3.2,-8 0,-17.6 -8,-20.8 -8,-3.2 -17.6,0 -20.8,8 l -100.8,222.4 c -3.2,6.4 -1.6,12.8 3.2,17.6 3.2,3.2 6.4,4.8 11.2,4.8 1.6,0 4.8,0 6.4,-1.6 l 222.4,-100.8 c 8,-3.2 11.2,-12.8 8,-20.8 z"
   id="path8" />
	</g>
</g><g
   id="g18"
   transform="matrix(-1,0,0,1,495.20593,0)">
	<g
   id="g16">
		<path
   inkscape:connector-curvature="0"
   d="m 209.665,284.832 c -8,-8 -20.8,-12.8 -32,-12.8 -12.8,0 -24,4.8 -32,12.8 -6.4,6.4 -6.4,16 0,22.4 6.4,6.4 16,6.4 22.4,0 3.2,-1.6 6.4,-3.2 9.6,-3.2 3.2,0 6.4,0 9.6,3.2 1.6,3.2 3.2,6.4 3.2,9.6 0,3.2 0,6.4 -3.2,9.6 -6.4,6.4 -6.4,16 0,22.4 3.2,3.2 6.4,4.8 11.2,4.8 3.2,0 8,-1.6 11.2,-4.8 8,-8 12.8,-19.2 12.8,-32 0,-12.8 -4.8,-24 -12.8,-32 z"
   id="path14" />
	</g>
</g><g
   id="g24"
   transform="matrix(-1,0,0,1,495.20593,0)">
	<g
   id="g22">
		<path
   inkscape:connector-curvature="0"
   d="m 169.665,244.832 c -17.6,-17.6 -46.4,-17.6 -64,0 -6.4,6.4 -6.4,16 0,22.4 6.4,6.4 16,6.4 22.4,0 4.8,-4.8 12.8,-4.8 17.6,0 4.8,4.8 4.8,12.8 0,17.6 -6.4,6.4 -6.4,16 0,22.4 3.2,3.2 6.4,4.8 11.2,4.8 4.8,0 8,-1.6 12.8,-3.2 17.6,-17.6 17.6,-46.4 0,-64 z"
   id="path20" />
	</g>
</g><g
   id="g30"
   transform="matrix(-1,0,0,1,495.20593,0)">
	<g
   id="g28">
		<path
   inkscape:connector-curvature="0"
   d="m 249.665,326.432 c -8,-8 -20.8,-12.8 -32,-12.8 -12.8,0 -24,4.8 -32,12.8 -6.4,6.4 -6.4,16 0,22.4 6.4,6.4 16,6.4 22.4,0 3.2,-1.6 6.4,-3.2 9.6,-3.2 3.2,0 6.4,0 9.6,3.2 4.8,4.8 4.8,12.8 0,17.6 -6.4,6.4 -6.4,16 0,22.4 3.2,3.2 6.4,4.8 11.2,4.8 4.8,0 8,-1.6 11.2,-3.2 17.6,-17.6 17.6,-46.4 0,-64 z"
   id="path26" />
	</g>
</g><g
   id="g36"
   transform="matrix(-1,0,0,1,495.20593,0)">
	<g
   id="g34">
		<path
   inkscape:connector-curvature="0"
   d="m 409.665,44.832 c -6.4,-6.4 -16,-6.4 -22.4,0 l -212.8,211.2 c -6.4,6.4 -6.4,16 0,22.4 3.2,3.2 6.4,4.8 11.2,4.8 4.8,0 9.6,-1.6 12.8,-4.8 l 211.2,-211.2 c 6.4,-6.4 6.4,-16 0,-22.4 z"
   id="path32" />
	</g>
</g><g
   id="g42"
   transform="matrix(-1,0,0,1,495.20593,0)">
	<g
   id="g40">
		<path
   inkscape:connector-curvature="0"
   d="m 449.665,84.832 c -6.4,-6.4 -16,-6.4 -22.4,0 l -211.2,212.8 c -6.4,6.4 -6.4,16 0,22.4 3.2,3.2 6.4,4.8 11.2,4.8 4.8,0 8,-1.6 11.2,-4.8 l 211.2,-212.8 c 6.4,-6.4 6.4,-16 0,-22.4 z"
   id="path38" />
	</g>
</g><g
   id="g48"
   transform="matrix(-1,0,0,1,495.20593,0)">
	<g
   id="g46">
		<path
   inkscape:connector-curvature="0"
   d="m 131.265,420.832 -57.6,-57.6 c -6.4,-6.4 -16,-6.4 -22.4,0 -6.4,6.4 -6.4,16 0,22.4 l 57.6,57.6 c 3.2,3.2 6.4,4.8 11.2,4.8 4.8,0 8,-1.6 11.2,-4.8 6.4,-6.4 6.4,-16 0,-22.4 z"
   id="path44" />
	</g>
</g><path
   style="fill:none;stroke:#000000;stroke-width:30;stroke-linecap:butt;stroke-linejoin:miter;stroke-miterlimit:4;stroke-dasharray:60, 30;stroke-dashoffset:0;stroke-opacity:1"
   d="M -0.14563323,439.69224 481.49532,482.16986"
   id="path895"
   inkscape:connector-curvature="0"
   sodipodi:nodetypes="cc" /></svg>