<?xml version="1.0" encoding="UTF-8" standalone="no"?>
<!-- Generator: Adobe Illustrator 19.0.0, SVG Export Plug-In . SVG Version: 6.00 Build 0)  -->

<svg
   xmlns:dc="http://purl.org/dc/elements/1.1/"
   xmlns:cc="http://creativecommons.org/ns#"
   xmlns:rdf="http://www.w3.org/1999/02/22-rdf-syntax-ns#"
   xmlns:svg="http://www.w3.org/2000/svg"
   xmlns="http://www.w3.org/2000/svg"
   xmlns:sodipodi="http://sodipodi.sourceforge.net/DTD/sodipodi-0.dtd"
   xmlns:inkscape="http://www.inkscape.org/namespaces/inkscape"
   version="1.1"
   id="Layer_1"
   x="0px"
   y="0px"
   viewBox="0 0 496 496"
   style="enable-background:new 0 0 496 496;"
   xml:space="preserve"
   sodipodi:docname="eraser.svg"
   inkscape:version="0.92.5 (2060ec1f9f, 2020-04-08)"><metadata
   id="metadata55"><rdf:RDF><cc:Work
       rdf:about=""><dc:format>image/svg+xml</dc:format><dc:type
         rdf:resource="http://purl.org/dc/dcmitype/StillImage" /><dc:title /></cc:Work></rdf:RDF></metadata><defs
   id="defs53" /><sodipodi:namedview
   pagecolor="#ffffff"
   bordercolor="#666666"
   borderopacity="1"
   objecttolerance="10"
   gridtolerance="10"
   guidetolerance="10"
   inkscape:pageopacity="0"
   inkscape:pageshadow="2"
   inkscape:window-width="1920"
   inkscape:window-height="1144"
   id="namedview51"
   showgrid="false"
   inkscape:zoom="0.9516129"
   inkscape:cx="331.72509"
   inkscape:cy="226.2238"
   inkscape:window-x="0"
   inkscape:window-y="0"
   inkscape:window-maximized="1"
   inkscape:current-layer="Layer_1" />
<g
   id="g6">
	<g
   id="g4">
		<path
   d="M476.8,148l-99.2-99.2c-11.2-12.8-27.2-19.2-44.8-19.2c-16,0-32,6.4-44.8,19.2L19.2,317.6C6.4,330.4,0,344.8,0,360.8    s6.4,32,19.2,43.2l62.4,57.6c3.2,3.2,6.4,4.8,11.2,4.8H232c4.8,0,8-1.6,11.2-3.2l233.6-228.8c12.8-12.8,19.2-27.2,19.2-43.2    S489.6,160.8,476.8,148z M454.4,210.4l-228.8,224H99.2l-57.6-51.2c-6.4-6.4-9.6-14.4-9.6-20.8c0-8,3.2-14.4,9.6-20.8l268.8-272    c11.2-12.8,32-12.8,44.8,0l99.2,99.2c6.4,6.4,9.6,14.4,9.6,20.8C464,197.6,460.8,204,454.4,210.4z"
   id="path2" />
	</g>
</g>

<g
   id="g18">
	<g
   id="g16">
		<path
   d="M339.2,340l-160-160c-6.4-6.4-16-6.4-22.4,0c-6.4,6.4-6.4,16,0,22.4l160,160c3.2,3.2,6.4,4.8,11.2,4.8s8-1.6,11.2-4.8    C345.6,356,345.6,346.4,339.2,340z"
   id="path14" />
	</g>
</g>
<g
   id="g20">
</g>
<g
   id="g22">
</g>
<g
   id="g24">
</g>
<g
   id="g26">
</g>
<g
   id="g28">
</g>
<g
   id="g30">
</g>
<g
   id="g32">
</g>
<g
   id="g34">
</g>
<g
   id="g36">
</g>
<g
   id="g38">
</g>
<g
   id="g40">
</g>
<g
   id="g42">
</g>
<g
   id="g44">
</g>
<g
   id="g46">
</g>
<g
   id="g48">
</g>
</svg>