<?xml version="1.0" encoding="UTF-8" standalone="no"?>
<!-- Generator: Adobe Illustrator 19.0.0, SVG Export Plug-In . SVG Version: 6.00 Build 0)  -->

<svg
   xmlns:dc="http://purl.org/dc/elements/1.1/"
   xmlns:cc="http://creativecommons.org/ns#"
   xmlns:rdf="http://www.w3.org/1999/02/22-rdf-syntax-ns#"
   xmlns:svg="http://www.w3.org/2000/svg"
   xmlns="http://www.w3.org/2000/svg"
   xmlns:sodipodi="http://sodipodi.sourceforge.net/DTD/sodipodi-0.dtd"
   xmlns:inkscape="http://www.inkscape.org/namespaces/inkscape"
   version="1.1"
   id="Layer_1"
   x="0px"
   y="0px"
   viewBox="0 0 502 502"
   style="enable-background:new 0 0 502 502;"
   xml:space="preserve"
   sodipodi:docname="file_save.svg"
   inkscape:version="0.92.5 (2060ec1f9f, 2020-04-08)"><metadata
   id="metadata53"><rdf:RDF><cc:Work
       rdf:about=""><dc:format>image/svg+xml</dc:format><dc:type
         rdf:resource="http://purl.org/dc/dcmitype/StillImage" /><dc:title></dc:title></cc:Work></rdf:RDF></metadata><defs
   id="defs51">
	

		
	
			
			
			
			
			
		</defs><sodipodi:namedview
   pagecolor="#ffffff"
   bordercolor="#666666"
   borderopacity="1"
   objecttolerance="10"
   gridtolerance="10"
   guidetolerance="10"
   inkscape:pageopacity="0"
   inkscape:pageshadow="2"
   inkscape:window-width="1472"
   inkscape:window-height="995"
   id="namedview49"
   showgrid="false"
   inkscape:zoom="0.47011952"
   inkscape:cx="1.0635593"
   inkscape:cy="251"
   inkscape:window-x="0"
   inkscape:window-y="0"
   inkscape:window-maximized="0"
   inkscape:current-layer="Layer_1" />
<path
   inkscape:connector-curvature="0"
   id="path2"
   d="m 10,502 482,0 c 5.523,0 10,-4.477 10,-10 l 0,-424 c 0,-2.652 -1.054,-5.196 -2.929,-7.071 l -58,-58 C 439.196,1.054 436.652,0 434,0 L 10,0 C 4.477,0 0,4.477 0,10 l 0,482 c 0,5.523 4.477,10 10,10 z m 406,-20 -330,0 0,-240 330,0 z M 307.955,20 H 343.94 V 87.589 H 307.955 V 20 Z m -119.194,0 99.194,0 v 77.589 c 0,5.523 4.477,10 10,10 h 55.985 c 5.523,0 10,-4.477 10,-10 V 20 h 17.925 v 101 l -193.104,0 z m -68.627,0 h 48.627 V 121 H 120.134 Z M 20,20 h 80.134 v 111 c 0,5.523 4.477,10 10,10 h 68.627 l 213.105,0 c 5.523,0 10,-4.477 10,-10 l 0,-111 h 27.992 L 482,72.142 482,482 H 436 V 232 c 0,-5.523 -4.477,-10 -10,-10 l -350,0 c -5.523,0 -10,4.477 -10,10 l 0,250 H 20 Z" /><path
   inkscape:connector-curvature="0"
   id="path4"
   d="M 134.5,440 H 157 c 5.523,0 10,-4.477 10,-10 0,-5.523 -4.477,-10 -10,-10 h -22.5 c -5.523,0 -10,4.477 -10,10 0,5.523 4.477,10 10,10 z" /><path
   inkscape:connector-curvature="0"
   id="path6"
   d="M 367.5,420 203,420 c -5.523,0 -10,4.477 -10,10 0,5.523 4.477,10 10,10 l 164.5,0 c 5.523,0 10,-4.477 10,-10 0,-5.523 -4.477,-10 -10,-10 z" /><path
   inkscape:connector-curvature="0"
   id="path8"
   d="m 134.5,373 233,0 c 5.523,0 10,-4.477 10,-10 0,-5.523 -4.477,-10 -10,-10 l -233,0 c -5.523,0 -10,4.477 -10,10 0,5.523 4.477,10 10,10 z" /><path
   inkscape:connector-curvature="0"
   id="path10"
   d="m 134.5,306 233,0 c 5.523,0 10,-4.477 10,-10 0,-5.523 -4.477,-10 -10,-10 l -233,0 c -5.523,0 -10,4.477 -10,10 0,5.523 4.477,10 10,10 z" />
<g
   id="g18">
</g>
<g
   id="g20">
</g>
<g
   id="g22">
</g>
<g
   id="g24">
</g>
<g
   id="g26">
</g>
<g
   id="g28">
</g>
<g
   id="g30">
</g>
<g
   id="g32">
</g>
<g
   id="g34">
</g>
<g
   id="g36">
</g>
<g
   id="g38">
</g>
<g
   id="g40">
</g>
<g
   id="g42">
</g>
<g
   id="g44">
</g>
<g
   id="g46">
</g>
</svg>