<?xml version="1.0" encoding="UTF-8" standalone="no"?>
<!-- Generator: Adobe Illustrator 19.0.0, SVG Export Plug-In . SVG Version: 6.00 Build 0)  -->

<svg
   xmlns:dc="http://purl.org/dc/elements/1.1/"
   xmlns:cc="http://creativecommons.org/ns#"
   xmlns:rdf="http://www.w3.org/1999/02/22-rdf-syntax-ns#"
   xmlns:svg="http://www.w3.org/2000/svg"
   xmlns="http://www.w3.org/2000/svg"
   xmlns:sodipodi="http://sodipodi.sourceforge.net/DTD/sodipodi-0.dtd"
   xmlns:inkscape="http://www.inkscape.org/namespaces/inkscape"
   version="1.1"
   id="Layer_1"
   x="0px"
   y="0px"
   viewBox="0 0 502 502"
   style="enable-background:new 0 0 502 502;"
   xml:space="preserve"
   sodipodi:docname="file_saveas.svg"
   inkscape:version="0.92.5 (2060ec1f9f, 2020-04-08)"><metadata
   id="metadata53"><rdf:RDF><cc:Work
       rdf:about=""><dc:format>image/svg+xml</dc:format><dc:type
         rdf:resource="http://purl.org/dc/dcmitype/StillImage" /><dc:title></dc:title></cc:Work></rdf:RDF></metadata><defs
   id="defs51">
	

		
	
			
			
			
			
			
		</defs><sodipodi:namedview
   pagecolor="#ffffff"
   bordercolor="#666666"
   borderopacity="1"
   objecttolerance="10"
   gridtolerance="10"
   guidetolerance="10"
   inkscape:pageopacity="0"
   inkscape:pageshadow="2"
   inkscape:window-width="1472"
   inkscape:window-height="995"
   id="namedview49"
   showgrid="false"
   inkscape:zoom="0.47011952"
   inkscape:cx="1.0635593"
   inkscape:cy="251"
   inkscape:window-x="0"
   inkscape:window-y="0"
   inkscape:window-maximized="0"
   inkscape:current-layer="Layer_1" />
<path
   inkscape:connector-curvature="0"
   id="path2"
   d="M 8.6065103,432.04682 H 423.44031 c 4.75338,0 8.60651,-3.85313 8.60651,-8.60651 V 58.52427 c 0,-2.282447 -0.90712,-4.471943 -2.52085,-6.085663 L 379.60821,2.5208468 C 377.99449,0.90712618 375.80499,0 373.52255,0 H 8.6065103 C 3.8531346,0 0,3.8531346 0,8.6065103 V 423.44031 c 0,4.75338 3.8531346,8.60651 8.6065103,8.60651 z M 358.03083,414.8338 H 74.015989 V 208.27755 H 358.03083 Z M 265.04179,17.213021 h 30.97053 v 58.170543 h -30.97053 z m -102.58444,0 h 85.37142 v 66.777053 c 0,4.753376 3.85313,8.60651 8.60651,8.60651 h 48.18355 c 4.75338,0 8.60651,-3.853134 8.60651,-8.60651 V 17.213021 h 15.42717 V 104.13877 H 162.45735 Z m -59.0639,0 h 41.85088 v 86.925749 h -41.85088 z m -86.180429,0 h 68.96741 v 95.532269 c 0,4.75337 3.853134,8.60651 8.60651,8.60651 h 59.063899 183.40904 c 4.75337,0 8.60651,-3.85314 8.60651,-8.60651 V 17.213021 h 24.09134 L 414.8338,62.089087 V 414.8338 H 375.24385 V 199.67104 c 0,-4.75337 -3.85314,-8.60651 -8.60651,-8.60651 H 65.409479 c -4.753376,0 -8.606511,3.85314 -8.606511,8.60651 V 414.8338 H 17.213021 Z"
   style="stroke-width:0.86065108" /><path
   inkscape:connector-curvature="0"
   id="path4"
   d="m 115.75756,378.68645 h 19.36465 c 4.75337,0 8.60651,-3.85313 8.60651,-8.60651 0,-4.75337 -3.85314,-8.60651 -8.60651,-8.60651 h -19.36465 c -4.75337,0 -8.60651,3.85314 -8.60651,8.60651 0,4.75338 3.85314,8.60651 8.60651,8.60651 z"
   style="stroke-width:0.86065108" /><path
   inkscape:connector-curvature="0"
   id="path6"
   d="m 316.28926,361.47343 h -141.5771 c -4.75337,0 -8.60651,3.85314 -8.60651,8.60651 0,4.75338 3.85314,8.60651 8.60651,8.60651 h 141.5771 c 4.75337,0 8.60651,-3.85313 8.60651,-8.60651 0,-4.75337 -3.85314,-8.60651 -8.60651,-8.60651 z"
   style="stroke-width:0.86065108" /><path
   inkscape:connector-curvature="0"
   id="path8"
   d="m 115.75756,321.02284 h 200.5317 c 4.75337,0 8.60651,-3.85314 8.60651,-8.60651 0,-4.75338 -3.85314,-8.60651 -8.60651,-8.60651 h -200.5317 c -4.75337,0 -8.60651,3.85313 -8.60651,8.60651 0,4.75337 3.85314,8.60651 8.60651,8.60651 z"
   style="stroke-width:0.86065108" /><path
   inkscape:connector-curvature="0"
   id="path10"
   d="m 115.75756,263.35921 h 200.5317 c 4.75337,0 8.60651,-3.85313 8.60651,-8.60651 0,-4.75337 -3.85314,-8.60651 -8.60651,-8.60651 h -200.5317 c -4.75337,0 -8.60651,3.85314 -8.60651,8.60651 0,4.75338 3.85314,8.60651 8.60651,8.60651 z"
   style="stroke-width:0.86065108" />
<g
   id="g18">
</g>
<g
   id="g20">
</g>
<g
   id="g22">
</g>
<g
   id="g24">
</g>
<g
   id="g26">
</g>
<g
   id="g28">
</g>
<g
   id="g30">
</g>
<g
   id="g32">
</g>
<g
   id="g34">
</g>
<g
   id="g36">
</g>
<g
   id="g38">
</g>
<g
   id="g40">
</g>
<g
   id="g42">
</g>
<g
   id="g44">
</g>
<g
   id="g46">
</g>
<g
   id="g1037"
   transform="matrix(0.84582624,0,0,0.84582624,509.87905,-164.09234)"><path
     d="m -106.13558,598.73423 a 86.373604,86.852196 0 0 1 86.373444,86.68639 86.373604,86.852196 0 0 1 -86.043654,87.01737 86.373604,86.852196 0 0 1 -86.70198,-86.35414 86.373604,86.852196 0 0 1 85.71261,-87.34709"
     sodipodi:open="true"
     sodipodi:end="4.7047526"
     sodipodi:start="4.712389"
     sodipodi:ry="86.852196"
     sodipodi:rx="86.373604"
     sodipodi:cy="685.58643"
     sodipodi:cx="-106.13558"
     sodipodi:type="arc"
     id="path1016"
     style="fill:#ffffff;fill-opacity:1;stroke:#000000;stroke-width:23.80945396;stroke-linecap:round;stroke-linejoin:round;stroke-miterlimit:4;stroke-dasharray:none;stroke-opacity:1;paint-order:fill markers stroke" /><path
     inkscape:connector-curvature="0"
     id="path1018"
     d="M -159.17595,684.45044 H -54.414348"
     style="fill:none;stroke:#000000;stroke-width:24.97156715;stroke-linecap:butt;stroke-linejoin:miter;stroke-miterlimit:4;stroke-dasharray:none;stroke-opacity:1" /><path
     inkscape:connector-curvature="0"
     id="path1018-3"
     d="m -106.79515,632.06964 v 104.7616"
     style="fill:none;stroke:#000000;stroke-width:23.80945396;stroke-linecap:butt;stroke-linejoin:miter;stroke-miterlimit:4;stroke-dasharray:none;stroke-opacity:1" /></g></svg>