<?xml version="1.0" encoding="UTF-8" standalone="no"?>
<!-- Generator: Adobe Illustrator 19.0.0, SVG Export Plug-In . SVG Version: 6.00 Build 0)  -->

<svg
   xmlns:dc="http://purl.org/dc/elements/1.1/"
   xmlns:cc="http://creativecommons.org/ns#"
   xmlns:rdf="http://www.w3.org/1999/02/22-rdf-syntax-ns#"
   xmlns:svg="http://www.w3.org/2000/svg"
   xmlns="http://www.w3.org/2000/svg"
   xmlns:sodipodi="http://sodipodi.sourceforge.net/DTD/sodipodi-0.dtd"
   xmlns:inkscape="http://www.inkscape.org/namespaces/inkscape"
   version="1.1"
   id="Layer_1"
   x="0px"
   y="0px"
   viewBox="0 0 194.828 194.828"
   style="enable-background:new 0 0 194.828 194.828;"
   xml:space="preserve"
   sodipodi:docname="fill_area.svg"
   inkscape:version="0.92.5 (2060ec1f9f, 2020-04-08)"><metadata
   id="metadata71"><rdf:RDF><cc:Work
       rdf:about=""><dc:format>image/svg+xml</dc:format><dc:type
         rdf:resource="http://purl.org/dc/dcmitype/StillImage" /><dc:title></dc:title></cc:Work></rdf:RDF></metadata><defs
   id="defs69" /><sodipodi:namedview
   pagecolor="#ffffff"
   bordercolor="#666666"
   borderopacity="1"
   objecttolerance="10"
   gridtolerance="10"
   guidetolerance="10"
   inkscape:pageopacity="0"
   inkscape:pageshadow="2"
   inkscape:window-width="1388"
   inkscape:window-height="1008"
   id="namedview67"
   showgrid="false"
   inkscape:zoom="6.8522881"
   inkscape:cx="47.189299"
   inkscape:cy="124.4734"
   inkscape:window-x="0"
   inkscape:window-y="0"
   inkscape:window-maximized="0"
   inkscape:current-layer="Layer_1" />
<g
   id="g34">
	<g
   id="g32">
		<g
   id="g30">
			<path
   d="M101.31,3.897c0-2.152-1.743-3.897-3.896-3.897H81.828c-2.154,0-3.897,1.745-3.897,3.897v3.897H23.379V3.897     c0-2.152-1.743-3.897-3.896-3.897H3.897C1.743,0.001,0,1.745,0,3.897v15.586c0,2.152,1.743,3.897,3.897,3.897h3.897v54.552H3.897     C1.743,77.931,0,79.677,0,81.829v15.586c0,2.152,1.743,3.897,3.897,3.897h15.586c2.154,0,3.897-1.745,3.897-3.897v-3.897h54.552     v3.897c0,2.152,1.743,3.897,3.897,3.897h15.586c2.154,0,3.897-1.745,3.897-3.897V81.829c0-2.152-1.743-3.897-3.897-3.897h-3.897     V23.38h3.897c2.154,0,3.897-1.745,3.897-3.897v-3.897h15.586V7.794H101.31V3.897z M7.793,15.587V7.794h7.793v7.793H7.793z      M15.586,93.517H7.793v-7.793h7.793V93.517z M81.827,77.931c-2.154,0-3.897,1.745-3.897,3.897v3.897H23.379v-3.897     c0-2.152-1.743-3.897-3.897-3.897h-3.897V23.38h3.897c2.154,0,3.897-1.745,3.897-3.897v-3.897h54.552v3.897     c0,2.152,1.743,3.897,3.897,3.897h3.897v54.552h-0.001H81.827z M93.517,93.517h-7.793v-7.793h7.793V93.517z M93.517,15.587     h-7.793V7.794h7.793V15.587z"
   id="path2" />
			<rect
   x="187.034"
   y="35.069"
   width="7.793"
   height="19.483"
   id="rect4" />
			<rect
   x="175.345"
   y="7.794"
   width="19.483"
   height="7.793"
   id="rect6" />
			<rect
   x="187.034"
   y="74.035"
   width="7.793"
   height="19.483"
   id="rect8" />
			<rect
   x="15.586"
   y="187.035"
   width="19.483"
   height="7.793"
   id="rect10" />
			<rect
   x="93.517"
   y="187.035"
   width="19.483"
   height="7.793"
   id="rect12" />
			<rect
   x="7.793"
   y="155.863"
   width="7.793"
   height="19.483"
   id="rect14" />
			<rect
   x="7.793"
   y="116.897"
   width="7.793"
   height="19.483"
   id="rect16" />
			<rect
   x="54.552"
   y="187.035"
   width="19.483"
   height="7.793"
   id="rect18" />
			<rect
   x="132.483"
   y="187.035"
   width="19.483"
   height="7.793"
   id="rect20" />
			<rect
   x="187.034"
   y="113.001"
   width="7.793"
   height="19.483"
   id="rect22" />
			<rect
   x="187.034"
   y="151.967"
   width="7.793"
   height="19.483"
   id="rect24" />
			<rect
   x="136.379"
   y="7.794"
   width="19.483"
   height="7.793"
   id="rect26" />
			<rect
   x="171.448"
   y="187.035"
   width="19.483"
   height="7.793"
   id="rect28" />
		</g>
	</g>
</g>
<g
   id="g36">
</g>
<g
   id="g38">
</g>
<g
   id="g40">
</g>
<g
   id="g42">
</g>
<g
   id="g44">
</g>
<g
   id="g46">
</g>
<g
   id="g48">
</g>
<g
   id="g50">
</g>
<g
   id="g52">
</g>
<g
   id="g54">
</g>
<g
   id="g56">
</g>
<g
   id="g58">
</g>
<g
   id="g60">
</g>
<g
   id="g62">
</g>
<g
   id="g64">
</g>
<g
   id="g1031"
   transform="matrix(0.16051777,0,0,0.16051777,81.059459,94.825526)"><g
     id="g965">
	<g
   id="g963">
		<path
   id="path961"
   d="m 387.515,229.43 -272,-225.6 c -4.8,-4.8 -11.2,-4.8 -17.6,-1.6 -4.8,3.2 -8,9.6 -8,16 l 41.6,350.4 c 0,6.4 3.2,9.6 8,12.8 3.2,1.6 4.8,1.6 8,1.6 3.2,0 6.4,-1.6 8,-1.6 l 230.4,-124.8 c 4.8,-3.2 8,-8 8,-12.8 0,-6.4 -1.6,-11.2 -6.4,-14.4 z m -225.6,112 -35.2,-288 224,185.6 z"
   inkscape:connector-curvature="0" />
	</g>
</g><g
     id="g971">
	<g
   id="g969">
		<path
   id="path967"
   d="m 358.715,459.83 -80,-153.6 c -4.8,-8 -14.4,-11.2 -22.4,-6.4 -8,4.8 -11.2,14.4 -6.4,22.4 l 80,153.6 c 3.2,4.8 8,8 14.4,8 3.2,0 4.8,0 8,-1.6 8,-4.8 11.2,-14.4 6.4,-22.4 z"
   inkscape:connector-curvature="0" />
	</g>
</g><g
     id="g973">
</g><g
     id="g975">
</g><g
     id="g977">
</g><g
     id="g979">
</g><g
     id="g981">
</g><g
     id="g983">
</g><g
     id="g985">
</g><g
     id="g987">
</g><g
     id="g989">
</g><g
     id="g991">
</g><g
     id="g993">
</g><g
     id="g995">
</g><g
     id="g997">
</g><g
     id="g999">
</g><g
     id="g1001">
</g></g><rect
   style="fill:#ffffff;fill-opacity:1;stroke:#000000;stroke-width:0;stroke-linecap:round;stroke-linejoin:round;stroke-miterlimit:4;stroke-dasharray:none;stroke-opacity:1;paint-order:fill markers stroke"
   id="rect1033"
   width="70.138"
   height="70.137001"
   x="15.586"
   y="15.587" /></svg>