<?xml version="1.0" encoding="UTF-8" standalone="no"?>
<!-- Generator: Adobe Illustrator 18.0.0, SVG Export Plug-In . SVG Version: 6.00 Build 0)  -->

<svg
   xmlns:dc="http://purl.org/dc/elements/1.1/"
   xmlns:cc="http://creativecommons.org/ns#"
   xmlns:rdf="http://www.w3.org/1999/02/22-rdf-syntax-ns#"
   xmlns:svg="http://www.w3.org/2000/svg"
   xmlns="http://www.w3.org/2000/svg"
   xmlns:sodipodi="http://sodipodi.sourceforge.net/DTD/sodipodi-0.dtd"
   xmlns:inkscape="http://www.inkscape.org/namespaces/inkscape"
   version="1.1"
   id="Capa_1"
   x="0px"
   y="0px"
   viewBox="0 0 54 54"
   style="enable-background:new 0 0 54 54;"
   xml:space="preserve"
   sodipodi:docname="fill_window.svg"
   inkscape:version="0.92.5 (2060ec1f9f, 2020-04-08)"><metadata
   id="metadata45"><rdf:RDF><cc:Work
       rdf:about=""><dc:format>image/svg+xml</dc:format><dc:type
         rdf:resource="http://purl.org/dc/dcmitype/StillImage" /><dc:title></dc:title></cc:Work></rdf:RDF></metadata><defs
   id="defs43">
	
	
	
</defs><sodipodi:namedview
   pagecolor="#ffffff"
   bordercolor="#666666"
   borderopacity="1"
   objecttolerance="10"
   gridtolerance="10"
   guidetolerance="10"
   inkscape:pageopacity="0"
   inkscape:pageshadow="2"
   inkscape:window-width="1362"
   inkscape:window-height="1108"
   id="namedview41"
   showgrid="true"
   inkscape:zoom="8.7407407"
   inkscape:cx="17.401519"
   inkscape:cy="21.366547"
   inkscape:window-x="0"
   inkscape:window-y="0"
   inkscape:window-maximized="0"
   inkscape:current-layer="Capa_1"><inkscape:grid
     type="xygrid"
     id="grid852" /></sodipodi:namedview>
<path
   inkscape:connector-curvature="0"
   id="path2"
   d="M 0,0 V 54 H 54 V 0 Z M 52,52 H 2 V 2 h 50 z" /><path
   inkscape:connector-curvature="0"
   id="path4"
   d="M 20.143,49 V 47 H 8.414 L 23.707,31.707 c 0.391,-0.391 0.391,-1.023 0,-1.414 -0.391,-0.391 -1.023,-0.391 -1.414,0 L 7,45.586 V 33.857 H 5 V 49 Z" /><path
   inkscape:connector-curvature="0"
   id="path6"
   d="m 31,24 c 0.256,0 0.512,-0.098 0.707,-0.293 L 47,8.414 v 11.729 h 2 V 5 H 33.857 V 7 H 45.586 L 30.293,22.293 c -0.391,0.391 -0.391,1.023 0,1.414 C 30.488,23.902 30.744,24 31,24 Z" />
<g
   id="g10">
</g>
<g
   id="g12">
</g>
<g
   id="g14">
</g>
<g
   id="g16">
</g>
<g
   id="g18">
</g>
<g
   id="g20">
</g>
<g
   id="g22">
</g>
<g
   id="g24">
</g>
<g
   id="g26">
</g>
<g
   id="g28">
</g>
<g
   id="g30">
</g>
<g
   id="g32">
</g>
<g
   id="g34">
</g>
<g
   id="g36">
</g>
<g
   id="g38">
</g>
<path
   inkscape:connector-curvature="0"
   id="path4-7"
   d="M 5.0572654,20.142982 7.057263,20.139903 7.0392044,8.4109167 22.355732,23.680353 c 0.391602,0.390398 1.023601,0.389425 1.413998,-0.0022 0.390398,-0.391602 0.389425,-1.023601 -0.0022,-1.413998 L 8.4510257,6.9947413 20.180012,6.9766827 20.176933,4.9766851 5.0339505,5 Z" /><path
   inkscape:connector-curvature="0"
   id="path6-5"
   d="m 30.073952,30.961478 c 3.94e-4,0.256 0.09879,0.511849 0.294088,0.706548 l 15.316528,15.269436 -11.728987,0.01806 0.0031,1.999998 15.142982,-0.02332 -0.02332,-15.142982 -1.999997,0.0031 0.01806,11.728986 -15.316528,-15.269436 c -0.391601,-0.390398 -1.023601,-0.389424 -1.413998,0.0022 -0.1947,0.1953 -0.292305,0.451451 -0.291911,0.70745 z" /></svg>