<?xml version="1.0" encoding="UTF-8" standalone="no"?>
<!-- Generator: Adobe Illustrator 18.0.0, SVG Export Plug-In . SVG Version: 6.00 Build 0)  -->

<svg
   xmlns:dc="http://purl.org/dc/elements/1.1/"
   xmlns:cc="http://creativecommons.org/ns#"
   xmlns:rdf="http://www.w3.org/1999/02/22-rdf-syntax-ns#"
   xmlns:svg="http://www.w3.org/2000/svg"
   xmlns="http://www.w3.org/2000/svg"
   xmlns:sodipodi="http://sodipodi.sourceforge.net/DTD/sodipodi-0.dtd"
   xmlns:inkscape="http://www.inkscape.org/namespaces/inkscape"
   version="1.1"
   id="Capa_1"
   x="0px"
   y="0px"
   viewBox="0 0 54 54"
   style="enable-background:new 0 0 54 54;"
   xml:space="preserve"
   sodipodi:docname="fit_width.svg"
   inkscape:version="0.92.5 (2060ec1f9f, 2020-04-08)"><metadata
   id="metadata45"><rdf:RDF><cc:Work
       rdf:about=""><dc:format>image/svg+xml</dc:format><dc:type
         rdf:resource="http://purl.org/dc/dcmitype/StillImage" /><dc:title></dc:title></cc:Work></rdf:RDF></metadata><defs
   id="defs43">
	
	
	
</defs><sodipodi:namedview
   pagecolor="#ffffff"
   bordercolor="#666666"
   borderopacity="1"
   objecttolerance="10"
   gridtolerance="10"
   guidetolerance="10"
   inkscape:pageopacity="0"
   inkscape:pageshadow="2"
   inkscape:window-width="1362"
   inkscape:window-height="1108"
   id="namedview41"
   showgrid="true"
   inkscape:zoom="8.7407407"
   inkscape:cx="17.401519"
   inkscape:cy="21.366547"
   inkscape:window-x="0"
   inkscape:window-y="0"
   inkscape:window-maximized="0"
   inkscape:current-layer="Capa_1"><inkscape:grid
     type="xygrid"
     id="grid852" /></sodipodi:namedview>
<path
   inkscape:connector-curvature="0"
   id="path2"
   d="M 0,0 V 54 H 54 V 0 Z M 52,52 H 2 V 2 h 50 z" /><path
   inkscape:connector-curvature="0"
   id="path4"
   d="M 11.259818,36.325808 12.350727,35.094109 5.9530909,27.870811 H 22.636364 c 0.426545,0 0.771273,-0.389216 0.771273,-0.870811 0,-0.481595 -0.344728,-0.870811 -0.771273,-0.870811 H 5.9530909 L 12.350727,18.905891 11.259818,17.674192 3,27 Z"
   style="stroke-width:0.8196559" /><path
   inkscape:connector-curvature="0"
   id="path6"
   d="m 30.818181,27.61585 c 0.139638,0.157657 0.332728,0.254961 0.545455,0.254961 H 48.04691 l -6.397637,7.223298 1.090909,1.231699 L 51,27 42.740182,17.674192 41.649273,18.905891 48.04691,26.129189 H 31.363636 c -0.426545,0 -0.771273,0.389216 -0.771273,0.870811 0,0.240182 0.08618,0.458192 0.225818,0.61585 z"
   style="stroke-width:0.8196559" />
<g
   id="g10">
</g>
<g
   id="g12">
</g>
<g
   id="g14">
</g>
<g
   id="g16">
</g>
<g
   id="g18">
</g>
<g
   id="g20">
</g>
<g
   id="g22">
</g>
<g
   id="g24">
</g>
<g
   id="g26">
</g>
<g
   id="g28">
</g>
<g
   id="g30">
</g>
<g
   id="g32">
</g>
<g
   id="g34">
</g>
<g
   id="g36">
</g>
<g
   id="g38">
</g>
</svg>