<?xml version="1.0" encoding="UTF-8" standalone="no"?>
<!-- Generator: Adobe Illustrator 18.0.0, SVG Export Plug-In . SVG Version: 6.00 Build 0)  -->

<svg
   xmlns:dc="http://purl.org/dc/elements/1.1/"
   xmlns:cc="http://creativecommons.org/ns#"
   xmlns:rdf="http://www.w3.org/1999/02/22-rdf-syntax-ns#"
   xmlns:svg="http://www.w3.org/2000/svg"
   xmlns="http://www.w3.org/2000/svg"
   xmlns:sodipodi="http://sodipodi.sourceforge.net/DTD/sodipodi-0.dtd"
   xmlns:inkscape="http://www.inkscape.org/namespaces/inkscape"
   version="1.1"
   id="Capa_1"
   x="0px"
   y="0px"
   viewBox="0 0 60 60"
   style="enable-background:new 0 0 60 60;"
   xml:space="preserve"
   sodipodi:docname="h_mirror.svg"
   inkscape:version="0.92.5 (2060ec1f9f, 2020-04-08)"><metadata
   id="metadata65"><rdf:RDF><cc:Work
       rdf:about=""><dc:format>image/svg+xml</dc:format><dc:type
         rdf:resource="http://purl.org/dc/dcmitype/StillImage" /><dc:title></dc:title></cc:Work></rdf:RDF></metadata><defs
   id="defs63">
	
	
	
	
	
	
	
	
	
	
	
	
	
</defs><sodipodi:namedview
   pagecolor="#ffffff"
   bordercolor="#666666"
   borderopacity="1"
   objecttolerance="10"
   gridtolerance="10"
   guidetolerance="10"
   inkscape:pageopacity="0"
   inkscape:pageshadow="2"
   inkscape:window-width="1497"
   inkscape:window-height="1103"
   id="namedview61"
   showgrid="false"
   inkscape:zoom="3.9333333"
   inkscape:cx="0.12711864"
   inkscape:cy="30"
   inkscape:window-x="0"
   inkscape:window-y="0"
   inkscape:window-maximized="0"
   inkscape:current-layer="Capa_1" />
<path
   inkscape:connector-curvature="0"
   id="path2"
   d="M 0,56.016 27.652,35 0,13.984 Z" /><path
   inkscape:connector-curvature="0"
   id="path4"
   d="M 32.348,35 60,56.016 V 13.984 Z" /><path
   inkscape:connector-curvature="0"
   id="path6"
   d="m 30,41 c -0.553,0 -1,0.447 -1,1 v 1 c 0,0.553 0.447,1 1,1 0.553,0 1,-0.447 1,-1 v -1 c 0,-0.553 -0.447,-1 -1,-1 z" /><path
   inkscape:connector-curvature="0"
   id="path8"
   d="m 30,51 c -0.553,0 -1,0.447 -1,1 v 1 c 0,0.553 0.447,1 1,1 0.553,0 1,-0.447 1,-1 v -1 c 0,-0.553 -0.447,-1 -1,-1 z" /><path
   inkscape:connector-curvature="0"
   id="path10"
   d="m 30,56 c -0.553,0 -1,0.447 -1,1 v 1 c 0,0.553 0.447,1 1,1 0.553,0 1,-0.447 1,-1 v -1 c 0,-0.553 -0.447,-1 -1,-1 z" /><path
   inkscape:connector-curvature="0"
   id="path12"
   d="m 30,21 c -0.553,0 -1,0.447 -1,1 v 1 c 0,0.553 0.447,1 1,1 0.553,0 1,-0.447 1,-1 v -1 c 0,-0.553 -0.447,-1 -1,-1 z" /><path
   inkscape:connector-curvature="0"
   id="path14"
   d="m 30,26 c -0.553,0 -1,0.447 -1,1 v 1 c 0,0.553 0.447,1 1,1 0.553,0 1,-0.447 1,-1 v -1 c 0,-0.553 -0.447,-1 -1,-1 z" /><path
   inkscape:connector-curvature="0"
   id="path16"
   d="m 30,11 c -0.553,0 -1,0.447 -1,1 v 1 c 0,0.553 0.447,1 1,1 0.553,0 1,-0.447 1,-1 v -1 c 0,-0.553 -0.447,-1 -1,-1 z" /><path
   inkscape:connector-curvature="0"
   id="path18"
   d="m 30,16 c -0.553,0 -1,0.447 -1,1 v 1 c 0,0.553 0.447,1 1,1 0.553,0 1,-0.447 1,-1 v -1 c 0,-0.553 -0.447,-1 -1,-1 z" /><path
   inkscape:connector-curvature="0"
   id="path20"
   d="m 30,31 c -0.553,0 -1,0.447 -1,1 v 1 c 0,0.553 0.447,1 1,1 0.553,0 1,-0.447 1,-1 v -1 c 0,-0.553 -0.447,-1 -1,-1 z" /><path
   inkscape:connector-curvature="0"
   id="path22"
   d="m 30,36 c -0.553,0 -1,0.447 -1,1 v 1 c 0,0.553 0.447,1 1,1 0.553,0 1,-0.447 1,-1 v -1 c 0,-0.553 -0.447,-1 -1,-1 z" /><path
   inkscape:connector-curvature="0"
   id="path24"
   d="m 30.71,46.02 c -0.37,-0.37 -1.04,-0.37 -1.42,0 -0.181,0.19 -0.29,0.45 -0.29,0.71 0,0.046 0.021,0.089 0.027,0.135 C 29.021,46.911 29,46.952 29,47 v 1 c 0,0.553 0.447,1 1,1 0.553,0 1,-0.447 1,-1 V 47 C 31,46.952 30.979,46.911 30.973,46.864 30.979,46.819 31,46.775 31,46.729 31,46.47 30.89,46.21 30.71,46.02 Z" /><path
   inkscape:connector-curvature="0"
   id="path26"
   d="m 11.973,14.929 c 0.512,0.204 1.094,-0.045 1.3,-0.558 C 15.989,7.569 22.712,3 30,3 37.001,3 43.469,7.224 46.363,13.545 l -5.902,-1.581 c -0.531,-0.142 -1.082,0.174 -1.225,0.707 -0.143,0.533 0.174,1.082 0.707,1.225 l 7.728,2.07 c 0.087,0.023 0.174,0.034 0.26,0.034 0.012,0 0.022,-0.005 0.034,-0.006 C 47.976,15.995 47.988,16 48,16 c 0.107,0 0.218,-0.018 0.325,-0.055 0.434,-0.149 0.682,-0.568 0.656,-1.005 L 50.966,7.53 C 51.109,6.997 50.792,6.448 50.259,6.305 49.728,6.163 49.177,6.479 49.034,7.012 l -1.29,4.815 C 44.327,5.283 37.433,1 30,1 21.901,1 14.433,6.075 11.415,13.629 c -0.205,0.513 0.045,1.095 0.558,1.3 z" />
<g
   id="g30">
</g>
<g
   id="g32">
</g>
<g
   id="g34">
</g>
<g
   id="g36">
</g>
<g
   id="g38">
</g>
<g
   id="g40">
</g>
<g
   id="g42">
</g>
<g
   id="g44">
</g>
<g
   id="g46">
</g>
<g
   id="g48">
</g>
<g
   id="g50">
</g>
<g
   id="g52">
</g>
<g
   id="g54">
</g>
<g
   id="g56">
</g>
<g
   id="g58">
</g>
</svg>