<?xml version="1.0" encoding="UTF-8" standalone="no"?>
<!-- Generator: Adobe Illustrator 18.0.0, SVG Export Plug-In . SVG Version: 6.00 Build 0)  -->

<svg
   xmlns:dc="http://purl.org/dc/elements/1.1/"
   xmlns:cc="http://creativecommons.org/ns#"
   xmlns:rdf="http://www.w3.org/1999/02/22-rdf-syntax-ns#"
   xmlns:svg="http://www.w3.org/2000/svg"
   xmlns="http://www.w3.org/2000/svg"
   xmlns:sodipodi="http://sodipodi.sourceforge.net/DTD/sodipodi-0.dtd"
   xmlns:inkscape="http://www.inkscape.org/namespaces/inkscape"
   version="1.1"
   id="Capa_1"
   x="0px"
   y="0px"
   viewBox="0 0 60 60"
   style="enable-background:new 0 0 60 60;"
   xml:space="preserve"
   sodipodi:docname="v_mirror.svg"
   inkscape:version="0.92.5 (2060ec1f9f, 2020-04-08)"><metadata
   id="metadata1040"><rdf:RDF><cc:Work
       rdf:about=""><dc:format>image/svg+xml</dc:format><dc:type
         rdf:resource="http://purl.org/dc/dcmitype/StillImage" /><dc:title></dc:title></cc:Work></rdf:RDF></metadata><defs
   id="defs1038">
	
	
	
	
	
	
	
	
	
	
	
	
	
</defs><sodipodi:namedview
   pagecolor="#ffffff"
   bordercolor="#666666"
   borderopacity="1"
   objecttolerance="10"
   gridtolerance="10"
   guidetolerance="10"
   inkscape:pageopacity="0"
   inkscape:pageshadow="2"
   inkscape:window-width="1472"
   inkscape:window-height="1007"
   id="namedview1036"
   showgrid="false"
   inkscape:zoom="3.9333333"
   inkscape:cx="-0.88983051"
   inkscape:cy="30"
   inkscape:window-x="0"
   inkscape:window-y="0"
   inkscape:window-maximized="0"
   inkscape:current-layer="Capa_1" />
<path
   inkscape:connector-curvature="0"
   id="path977"
   d="M 3.984,0 25,27.652 46.016,0 Z" /><path
   inkscape:connector-curvature="0"
   id="path979"
   d="M 25,32.348 3.984,60 h 42.032 z" /><path
   inkscape:connector-curvature="0"
   id="path981"
   d="m 19,30 c 0,-0.553 -0.447,-1 -1,-1 h -1 c -0.553,0 -1,0.447 -1,1 0,0.553 0.447,1 1,1 h 1 c 0.553,0 1,-0.447 1,-1 z" /><path
   inkscape:connector-curvature="0"
   id="path983"
   d="M 9,30 C 9,29.447 8.553,29 8,29 H 7 c -0.553,0 -1,0.447 -1,1 0,0.553 0.447,1 1,1 h 1 c 0.553,0 1,-0.447 1,-1 z" /><path
   inkscape:connector-curvature="0"
   id="path985"
   d="M 4,30 C 4,29.447 3.553,29 3,29 H 2 c -0.553,0 -1,0.447 -1,1 0,0.553 0.447,1 1,1 h 1 c 0.553,0 1,-0.447 1,-1 z" /><path
   inkscape:connector-curvature="0"
   id="path987"
   d="m 39,30 c 0,-0.553 -0.447,-1 -1,-1 h -1 c -0.553,0 -1,0.447 -1,1 0,0.553 0.447,1 1,1 h 1 c 0.553,0 1,-0.447 1,-1 z" /><path
   inkscape:connector-curvature="0"
   id="path989"
   d="m 34,30 c 0,-0.553 -0.447,-1 -1,-1 h -1 c -0.553,0 -1,0.447 -1,1 0,0.553 0.447,1 1,1 h 1 c 0.553,0 1,-0.447 1,-1 z" /><path
   inkscape:connector-curvature="0"
   id="path991"
   d="m 49,30 c 0,-0.553 -0.447,-1 -1,-1 h -1 c -0.553,0 -1,0.447 -1,1 0,0.553 0.447,1 1,1 h 1 c 0.553,0 1,-0.447 1,-1 z" /><path
   inkscape:connector-curvature="0"
   id="path993"
   d="m 44,30 c 0,-0.553 -0.447,-1 -1,-1 h -1 c -0.553,0 -1,0.447 -1,1 0,0.553 0.447,1 1,1 h 1 c 0.553,0 1,-0.447 1,-1 z" /><path
   inkscape:connector-curvature="0"
   id="path995"
   d="m 29,30 c 0,-0.553 -0.447,-1 -1,-1 h -1 c -0.553,0 -1,0.447 -1,1 0,0.553 0.447,1 1,1 h 1 c 0.553,0 1,-0.447 1,-1 z" /><path
   inkscape:connector-curvature="0"
   id="path997"
   d="m 24,30 c 0,-0.553 -0.447,-1 -1,-1 h -1 c -0.553,0 -1,0.447 -1,1 0,0.553 0.447,1 1,1 h 1 c 0.553,0 1,-0.447 1,-1 z" /><path
   inkscape:connector-curvature="0"
   id="path999"
   d="m 13.98,30.71 c 0.37,-0.37 0.37,-1.04 0,-1.42 C 13.79,29.109 13.53,29 13.27,29 13.224,29 13.181,29.021 13.135,29.027 13.089,29.021 13.048,29 13,29 h -1 c -0.553,0 -1,0.447 -1,1 0,0.553 0.447,1 1,1 h 1 c 0.048,0 0.089,-0.021 0.136,-0.027 0.045,0.006 0.089,0.027 0.135,0.027 0.259,0 0.519,-0.11 0.709,-0.29 z" /><path
   inkscape:connector-curvature="0"
   id="path1001"
   d="m 45.071,11.973 c -0.204,0.512 0.045,1.094 0.558,1.3 C 52.431,15.989 57,22.712 57,30 57,37.001 52.776,43.469 46.455,46.363 l 1.581,-5.902 c 0.142,-0.531 -0.174,-1.082 -0.707,-1.225 -0.533,-0.143 -1.082,0.174 -1.225,0.707 l -2.07,7.728 C 44.011,47.758 44,47.845 44,47.931 c 0,0.012 0.005,0.022 0.006,0.034 C 44.005,47.976 44,47.988 44,48 c 0,0.107 0.018,0.218 0.055,0.325 0.149,0.434 0.568,0.682 1.005,0.656 l 7.41,1.985 c 0.533,0.143 1.082,-0.174 1.225,-0.707 0.142,-0.531 -0.174,-1.082 -0.707,-1.225 l -4.815,-1.29 C 54.717,44.327 59,37.433 59,30 59,21.901 53.925,14.433 46.371,11.415 c -0.513,-0.205 -1.095,0.045 -1.3,0.558 z" />
<g
   id="g1005">
</g>
<g
   id="g1007">
</g>
<g
   id="g1009">
</g>
<g
   id="g1011">
</g>
<g
   id="g1013">
</g>
<g
   id="g1015">
</g>
<g
   id="g1017">
</g>
<g
   id="g1019">
</g>
<g
   id="g1021">
</g>
<g
   id="g1023">
</g>
<g
   id="g1025">
</g>
<g
   id="g1027">
</g>
<g
   id="g1029">
</g>
<g
   id="g1031">
</g>
<g
   id="g1033">
</g>
</svg>