<?xml version="1.0" encoding="iso-8859-1"?>
<!-- Generator: Adobe Illustrator 19.0.0, SVG Export Plug-In . SVG Version: 6.00 Build 0)  -->
<svg version="1.1" id="Layer_1" xmlns="http://www.w3.org/2000/svg" xmlns:xlink="http://www.w3.org/1999/xlink" x="0px" y="0px"
	 viewBox="0 0 494.465 494.465" style="enable-background:new 0 0 494.465 494.465;" xml:space="preserve">
<g>
	<g>
		<path d="M489.665,126.432l-121.6-121.6c-6.4-6.4-16-6.4-22.4,0l-240,240c-6.4,6.4-6.4,16,0,22.4c6.4,6.4,16,6.4,22.4,0
			l230.4-230.4l99.2,99.2l-230.4,230.4c-6.4,6.4-6.4,16,0,22.4c3.2,3.2,6.4,4.8,11.2,4.8c4.8,0,8-1.6,11.2-4.8l240-240
			C496.065,142.432,496.065,132.832,489.665,126.432z"/>
	</g>
</g>
<g>
	<g>
		<path d="M252.865,371.232c-3.2-8-12.8-11.2-20.8-8l-184,83.2l83.2-184c3.2-8,0-17.6-8-20.8s-17.6,0-20.8,8l-100.8,222.4
			c-3.2,6.4-1.6,12.8,3.2,17.6c3.2,3.2,6.4,4.8,11.2,4.8c1.6,0,4.8,0,6.4-1.6l222.4-100.8
			C252.865,388.832,256.065,379.232,252.865,371.232z"/>
	</g>
</g>
<g>
	<g>
		<path d="M209.665,284.832c-8-8-20.8-12.8-32-12.8c-12.8,0-24,4.8-32,12.8c-6.4,6.4-6.4,16,0,22.4c6.4,6.4,16,6.4,22.4,0
			c3.2-1.6,6.4-3.2,9.6-3.2c3.2,0,6.4,0,9.6,3.2c1.6,3.2,3.2,6.4,3.2,9.6s0,6.4-3.2,9.6c-6.4,6.4-6.4,16,0,22.4
			c3.2,3.2,6.4,4.8,11.2,4.8c3.2,0,8-1.6,11.2-4.8c8-8,12.8-19.2,12.8-32S217.665,292.832,209.665,284.832z"/>
	</g>
</g>
<g>
	<g>
		<path d="M169.665,244.832c-17.6-17.6-46.4-17.6-64,0c-6.4,6.4-6.4,16,0,22.4c6.4,6.4,16,6.4,22.4,0c4.8-4.8,12.8-4.8,17.6,0
			c4.8,4.8,4.8,12.8,0,17.6c-6.4,6.4-6.4,16,0,22.4c3.2,3.2,6.4,4.8,11.2,4.8c4.8,0,8-1.6,12.8-3.2
			C187.265,291.232,187.265,262.432,169.665,244.832z"/>
	</g>
</g>
<g>
	<g>
		<path d="M249.665,326.432c-8-8-20.8-12.8-32-12.8c-12.8,0-24,4.8-32,12.8c-6.4,6.4-6.4,16,0,22.4c6.4,6.4,16,6.4,22.4,0
			c3.2-1.6,6.4-3.2,9.6-3.2c3.2,0,6.4,0,9.6,3.2c4.8,4.8,4.8,12.8,0,17.6c-6.4,6.4-6.4,16,0,22.4c3.2,3.2,6.4,4.8,11.2,4.8
			c4.8,0,8-1.6,11.2-3.2C267.265,372.832,267.265,344.032,249.665,326.432z"/>
	</g>
</g>
<g>
	<g>
		<path d="M409.665,44.832c-6.4-6.4-16-6.4-22.4,0l-212.8,211.2c-6.4,6.4-6.4,16,0,22.4c3.2,3.2,6.4,4.8,11.2,4.8
			c4.8,0,9.6-1.6,12.8-4.8l211.2-211.2C416.065,60.832,416.065,51.232,409.665,44.832z"/>
	</g>
</g>
<g>
	<g>
		<path d="M449.665,84.832c-6.4-6.4-16-6.4-22.4,0l-211.2,212.8c-6.4,6.4-6.4,16,0,22.4c3.2,3.2,6.4,4.8,11.2,4.8s8-1.6,11.2-4.8
			l211.2-212.8C456.065,100.832,456.065,91.232,449.665,84.832z"/>
	</g>
</g>
<g>
	<g>
		<path d="M131.265,420.832l-57.6-57.6c-6.4-6.4-16-6.4-22.4,0c-6.4,6.4-6.4,16,0,22.4l57.6,57.6c3.2,3.2,6.4,4.8,11.2,4.8
			s8-1.6,11.2-4.8C137.665,436.832,137.665,427.232,131.265,420.832z"/>
	</g>
</g>
<g>
</g>
<g>
</g>
<g>
</g>
<g>
</g>
<g>
</g>
<g>
</g>
<g>
</g>
<g>
</g>
<g>
</g>
<g>
</g>
<g>
</g>
<g>
</g>
<g>
</g>
<g>
</g>
<g>
</g>
</svg>
