<?xml version="1.0" encoding="UTF-8" standalone="no"?>
<!-- Generator: Adobe Illustrator 19.0.0, SVG Export Plug-In . SVG Version: 6.00 Build 0)  -->

<svg
   xmlns:dc="http://purl.org/dc/elements/1.1/"
   xmlns:cc="http://creativecommons.org/ns#"
   xmlns:rdf="http://www.w3.org/1999/02/22-rdf-syntax-ns#"
   xmlns:svg="http://www.w3.org/2000/svg"
   xmlns="http://www.w3.org/2000/svg"
   xmlns:sodipodi="http://sodipodi.sourceforge.net/DTD/sodipodi-0.dtd"
   xmlns:inkscape="http://www.inkscape.org/namespaces/inkscape"
   version="1.1"
   id="Layer_1"
   x="0px"
   y="0px"
   viewBox="0 0 494.465 494.465"
   style="enable-background:new 0 0 494.465 494.465;"
   xml:space="preserve"
   sodipodi:docname="pencil.svg"
   inkscape:version="0.92.5 (2060ec1f9f, 2020-04-08)"><metadata
   id="metadata1010"><rdf:RDF><cc:Work
       rdf:about=""><dc:format>image/svg+xml</dc:format><dc:type
         rdf:resource="http://purl.org/dc/dcmitype/StillImage" /></cc:Work></rdf:RDF></metadata><defs
   id="defs1008" /><sodipodi:namedview
   pagecolor="#ffffff"
   bordercolor="#666666"
   borderopacity="1"
   objecttolerance="10"
   gridtolerance="10"
   guidetolerance="10"
   inkscape:pageopacity="0"
   inkscape:pageshadow="2"
   inkscape:window-width="1920"
   inkscape:window-height="1144"
   id="namedview1006"
   showgrid="false"
   inkscape:zoom="1.9475595"
   inkscape:cx="247.2325"
   inkscape:cy="247.2325"
   inkscape:window-x="0"
   inkscape:window-y="0"
   inkscape:window-maximized="1"
   inkscape:current-layer="Layer_1" />
<g
   id="g931">
	<g
   id="g929">
		<path
   d="M489.665,126.432l-121.6-121.6c-6.4-6.4-16-6.4-22.4,0l-240,240c-6.4,6.4-6.4,16,0,22.4c6.4,6.4,16,6.4,22.4,0    l230.4-230.4l99.2,99.2l-230.4,230.4c-6.4,6.4-6.4,16,0,22.4c3.2,3.2,6.4,4.8,11.2,4.8c4.8,0,8-1.6,11.2-4.8l240-240    C496.065,142.432,496.065,132.832,489.665,126.432z"
   id="path927" />
	</g>
</g>
<g
   id="g937">
	<g
   id="g935">
		<path
   d="M252.865,371.232c-3.2-8-12.8-11.2-20.8-8l-184,83.2l83.2-184c3.2-8,0-17.6-8-20.8s-17.6,0-20.8,8l-100.8,222.4    c-3.2,6.4-1.6,12.8,3.2,17.6c3.2,3.2,6.4,4.8,11.2,4.8c1.6,0,4.8,0,6.4-1.6l222.4-100.8    C252.865,388.832,256.065,379.232,252.865,371.232z"
   id="path933" />
	</g>
</g>
<g
   id="g943">
	<g
   id="g941">
		<path
   d="M209.665,284.832c-8-8-20.8-12.8-32-12.8c-12.8,0-24,4.8-32,12.8c-6.4,6.4-6.4,16,0,22.4c6.4,6.4,16,6.4,22.4,0    c3.2-1.6,6.4-3.2,9.6-3.2c3.2,0,6.4,0,9.6,3.2c1.6,3.2,3.2,6.4,3.2,9.6s0,6.4-3.2,9.6c-6.4,6.4-6.4,16,0,22.4    c3.2,3.2,6.4,4.8,11.2,4.8c3.2,0,8-1.6,11.2-4.8c8-8,12.8-19.2,12.8-32S217.665,292.832,209.665,284.832z"
   id="path939" />
	</g>
</g>
<g
   id="g949">
	<g
   id="g947">
		<path
   d="M169.665,244.832c-17.6-17.6-46.4-17.6-64,0c-6.4,6.4-6.4,16,0,22.4c6.4,6.4,16,6.4,22.4,0c4.8-4.8,12.8-4.8,17.6,0    c4.8,4.8,4.8,12.8,0,17.6c-6.4,6.4-6.4,16,0,22.4c3.2,3.2,6.4,4.8,11.2,4.8c4.8,0,8-1.6,12.8-3.2    C187.265,291.232,187.265,262.432,169.665,244.832z"
   id="path945" />
	</g>
</g>
<g
   id="g955">
	<g
   id="g953">
		<path
   d="M249.665,326.432c-8-8-20.8-12.8-32-12.8c-12.8,0-24,4.8-32,12.8c-6.4,6.4-6.4,16,0,22.4c6.4,6.4,16,6.4,22.4,0    c3.2-1.6,6.4-3.2,9.6-3.2c3.2,0,6.4,0,9.6,3.2c4.8,4.8,4.8,12.8,0,17.6c-6.4,6.4-6.4,16,0,22.4c3.2,3.2,6.4,4.8,11.2,4.8    c4.8,0,8-1.6,11.2-3.2C267.265,372.832,267.265,344.032,249.665,326.432z"
   id="path951" />
	</g>
</g>
<g
   id="g961">
	<g
   id="g959">
		<path
   d="M409.665,44.832c-6.4-6.4-16-6.4-22.4,0l-212.8,211.2c-6.4,6.4-6.4,16,0,22.4c3.2,3.2,6.4,4.8,11.2,4.8    c4.8,0,9.6-1.6,12.8-4.8l211.2-211.2C416.065,60.832,416.065,51.232,409.665,44.832z"
   id="path957" />
	</g>
</g>
<g
   id="g967">
	<g
   id="g965">
		<path
   d="M449.665,84.832c-6.4-6.4-16-6.4-22.4,0l-211.2,212.8c-6.4,6.4-6.4,16,0,22.4c3.2,3.2,6.4,4.8,11.2,4.8s8-1.6,11.2-4.8    l211.2-212.8C456.065,100.832,456.065,91.232,449.665,84.832z"
   id="path963" />
	</g>
</g>
<g
   id="g973">
	<g
   id="g971">
		<path
   d="M131.265,420.832l-57.6-57.6c-6.4-6.4-16-6.4-22.4,0c-6.4,6.4-6.4,16,0,22.4l57.6,57.6c3.2,3.2,6.4,4.8,11.2,4.8    s8-1.6,11.2-4.8C137.665,436.832,137.665,427.232,131.265,420.832z"
   id="path969" />
	</g>
</g>
<g
   id="g975">
</g>
<g
   id="g977">
</g>
<g
   id="g979">
</g>
<g
   id="g981">
</g>
<g
   id="g983">
</g>
<g
   id="g985">
</g>
<g
   id="g987">
</g>
<g
   id="g989">
</g>
<g
   id="g991">
</g>
<g
   id="g993">
</g>
<g
   id="g995">
</g>
<g
   id="g997">
</g>
<g
   id="g999">
</g>
<g
   id="g1001">
</g>
<g
   id="g1003">
</g>
<path
   style="fill:#ffffff;fill-opacity:1;stroke:none;stroke-width:10.02538776;stroke-linecap:round;stroke-linejoin:round;stroke-miterlimit:4;stroke-dasharray:none;stroke-dashoffset:0;stroke-opacity:1;paint-order:stroke fill markers"
   d="m 58.094984,424.85142 c 5.21559,-11.52873 9.64997,-21.12978 9.854178,-21.33567 0.204207,-0.20589 5.617078,4.87739 12.0286,11.29619 l 11.657314,11.67054 -20.836217,9.406 c -11.459919,5.17331 -21.14009,9.52262 -21.511492,9.66514 -0.371401,0.14252 3.592026,-9.17347 8.807617,-20.7022 z"
   id="path1012"
   inkscape:connector-curvature="0" /><path
   style="fill:#ffffff;fill-opacity:1;stroke:none;stroke-width:10.02538776;stroke-linecap:round;stroke-linejoin:round;stroke-miterlimit:4;stroke-dasharray:none;stroke-dashoffset:0;stroke-opacity:1;paint-order:stroke fill markers"
   d="m 56.476416,428.37211 c 4.315644,-9.55088 8.688937,-19.18831 9.718432,-21.41652 l 1.871807,-4.05128 11.773949,11.7656 c 6.475672,6.47109 11.724873,11.80875 11.664892,11.86148 -0.219635,0.19308 -42.450407,19.20596 -42.65963,19.20596 -0.11884,0 3.314907,-7.81436 7.63055,-17.36524 z"
   id="path1014"
   inkscape:connector-curvature="0" /><path
   style="fill:#ffffff;fill-opacity:1;stroke:none;stroke-width:10.02538776;stroke-linecap:round;stroke-linejoin:round;stroke-miterlimit:4;stroke-dasharray:none;stroke-dashoffset:0;stroke-opacity:1;paint-order:stroke fill markers"
   d="m 102.71767,391.84877 -20.444387,-20.44918 23.816447,-52.75498 23.81644,-52.75498 2.05385,-0.94784 c 5.13614,-2.37029 11.67617,-0.45568 14.96227,4.38026 3.24367,4.77348 2.7484,9.99494 -1.44122,15.1942 -3.64869,4.52799 -4.70177,7.12981 -4.70442,11.6232 -0.003,4.78438 1.66931,8.34425 5.61211,11.94775 4.91236,4.48962 10.15794,5.23397 18.36283,2.60571 4.03016,-1.29097 5.19819,-1.92209 7.12707,-3.85097 2.41742,-2.41742 2.73486,-2.50851 8.09017,-2.3215 1.27082,0.0444 3.32312,0.56331 4.56067,1.1532 1.92267,0.91645 2.48006,1.56539 3.83056,4.45973 1.35265,2.89894 1.58343,3.99567 1.60089,7.6081 l 0.0204,4.22089 -3.44365,3.48106 c -4.36501,4.41243 -5.73983,7.33699 -5.73983,12.20994 0,4.37682 1.20906,7.36392 4.36758,10.79051 1.21405,1.31709 3.37193,3.00832 4.79529,3.7583 2.27341,1.19788 3.18076,1.36386 7.46583,1.36569 5.66262,0.003 7.98241,-0.82447 11.94935,-4.25936 3.06988,-2.65814 5.36352,-3.35442 10.23887,-3.10823 3.18214,0.1607 4.20329,0.44102 5.90668,1.62147 4.38228,3.03692 6.24942,9.73861 4.06367,14.58572 -0.9159,2.03111 -1.24645,2.23598 -10.00623,6.20183 -4.98247,2.25574 -28.35241,12.81884 -51.9332,23.47356 -23.5808,10.65472 -43.23631,19.56187 -43.67891,19.79366 -0.61948,0.32442 -5.5113,-4.28622 -21.24913,-20.02774 z"
   id="path1016"
   inkscape:connector-curvature="0" /><path
   style="fill:#ffffff;fill-opacity:1;stroke:none;stroke-width:10.02538776;stroke-linecap:round;stroke-linejoin:round;stroke-miterlimit:4;stroke-dasharray:none;stroke-dashoffset:0;stroke-opacity:1;paint-order:stroke fill markers"
   d="m 174.62521,250.40082 c -2.62455,-3.81074 -9.3663,-10.16175 -12.90976,-12.16156 l -2.89943,-1.63634 99.78778,-99.78876 99.78777,-99.788759 9.01961,9.009176 9.01962,9.009176 -35.71685,35.556781 C 274.34705,156.67 177.31146,252.93102 176.93517,253.07197 c -0.2056,0.077 -1.24509,-1.12501 -2.30996,-2.67115 z"
   id="path1018"
   inkscape:connector-curvature="0" /><path
   style="fill:#ffffff;fill-opacity:1;stroke:none;stroke-width:10.02538776;stroke-linecap:round;stroke-linejoin:round;stroke-miterlimit:4;stroke-dasharray:none;stroke-dashoffset:0;stroke-opacity:1;paint-order:stroke fill markers"
   d="m 215.40031,291.63207 c -2.71159,-4.26712 -8.98367,-10.44704 -12.74959,-12.56223 -1.46068,-0.82042 -2.65602,-1.60742 -2.65631,-1.7489 -2.9e-4,-0.14147 44.8245,-45.08181 99.61064,-99.8674 l 99.61117,-99.610173 8.69268,8.727695 8.69267,8.727695 -99.16035,99.868583 c -54.53819,54.92772 -99.28916,99.91993 -99.4466,99.9827 -0.15744,0.0628 -1.32488,-1.52031 -2.59431,-3.51797 z"
   id="path1020"
   inkscape:connector-curvature="0" /><path
   style="fill:#ffffff;fill-opacity:1;stroke:none;stroke-width:10.02538776;stroke-linecap:round;stroke-linejoin:round;stroke-miterlimit:4;stroke-dasharray:none;stroke-dashoffset:0;stroke-opacity:1;paint-order:stroke fill markers"
   d="m 255.71813,333.52235 c -2.11658,-3.61167 -8.45464,-9.96145 -12.27712,-12.29981 -1.84657,-1.12962 -3.30854,-2.20007 -3.24883,-2.37876 0.12656,-0.37875 198.6033,-200.37576 199.04431,-200.56892 0.16291,-0.0714 4.27901,3.85795 9.14689,8.73179 l 8.85068,8.86154 -100.04487,100.04388 -100.04487,100.04389 z"
   id="path1022"
   inkscape:connector-curvature="0" /></svg>