<?xml version="1.0" encoding="iso-8859-1"?>
<!-- Generator: Adobe Illustrator 19.0.0, SVG Export Plug-In . SVG Version: 6.00 Build 0)  -->
<svg version="1.1" id="Layer_1" xmlns="http://www.w3.org/2000/svg" xmlns:xlink="http://www.w3.org/1999/xlink" x="0px" y="0px"
	 viewBox="0 0 483.83 483.83" style="enable-background:new 0 0 483.83 483.83;" xml:space="preserve">
<g>
	<g>
		<path d="M387.515,229.43l-272-225.6c-4.8-4.8-11.2-4.8-17.6-1.6c-4.8,3.2-8,9.6-8,16l41.6,350.4c0,6.4,3.2,9.6,8,12.8
			c3.2,1.6,4.8,1.6,8,1.6c3.2,0,6.4-1.6,8-1.6l230.4-124.8c4.8-3.2,8-8,8-12.8C393.915,237.43,392.315,232.63,387.515,229.43z
			 M161.915,341.43l-35.2-288l224,185.6L161.915,341.43z"/>
	</g>
</g>
<g>
	<g>
		<path d="M358.715,459.83l-80-153.6c-4.8-8-14.4-11.2-22.4-6.4s-11.2,14.4-6.4,22.4l80,153.6c3.2,4.8,8,8,14.4,8c3.2,0,4.8,0,8-1.6
			C360.315,477.43,363.515,467.83,358.715,459.83z"/>
	</g>
</g>
<g>
</g>
<g>
</g>
<g>
</g>
<g>
</g>
<g>
</g>
<g>
</g>
<g>
</g>
<g>
</g>
<g>
</g>
<g>
</g>
<g>
</g>
<g>
</g>
<g>
</g>
<g>
</g>
<g>
</g>
</svg>
