<?xml version="1.0" encoding="UTF-8" standalone="no"?>
<!-- Generator: Adobe Illustrator 19.0.0, SVG Export Plug-In . SVG Version: 6.00 Build 0)  -->

<svg
   xmlns:dc="http://purl.org/dc/elements/1.1/"
   xmlns:cc="http://creativecommons.org/ns#"
   xmlns:rdf="http://www.w3.org/1999/02/22-rdf-syntax-ns#"
   xmlns:svg="http://www.w3.org/2000/svg"
   xmlns="http://www.w3.org/2000/svg"
   xmlns:sodipodi="http://sodipodi.sourceforge.net/DTD/sodipodi-0.dtd"
   xmlns:inkscape="http://www.inkscape.org/namespaces/inkscape"
   version="1.1"
   id="Layer_1"
   x="0px"
   y="0px"
   viewBox="0 0 255.99999 255.99999"
   xml:space="preserve"
   sodipodi:docname="zoom_selection.svg"
   inkscape:version="0.92.5 (2060ec1f9f, 2020-04-08)"
   width="256"
   height="256"><metadata
   id="metadata53"><rdf:RDF><cc:Work
       rdf:about=""><dc:format>image/svg+xml</dc:format><dc:type
         rdf:resource="http://purl.org/dc/dcmitype/StillImage" /><dc:title></dc:title></cc:Work></rdf:RDF></metadata><defs
   id="defs51">
	

		
	
			
			
			
			
			
		</defs><sodipodi:namedview
   pagecolor="#ffffff"
   bordercolor="#666666"
   borderopacity="1"
   objecttolerance="10"
   gridtolerance="10"
   guidetolerance="10"
   inkscape:pageopacity="0"
   inkscape:pageshadow="2"
   inkscape:window-width="1827"
   inkscape:window-height="1135"
   id="namedview49"
   showgrid="true"
   inkscape:zoom="2.5276054"
   inkscape:cx="91.026488"
   inkscape:cy="114.18877"
   inkscape:window-x="0"
   inkscape:window-y="0"
   inkscape:window-maximized="0"
   inkscape:current-layer="Layer_1"><inkscape:grid
     type="xygrid"
     id="grid878" /></sodipodi:namedview>
<path
   inkscape:connector-curvature="0"
   id="path2"
   d="m 185.72499,145.53941 c -21.88707,0 -39.69368,17.80661 -39.69368,39.69368 0,21.88708 17.80661,39.69368 39.69368,39.69368 21.88708,0 39.69368,-17.8066 39.69368,-39.69368 0,-21.88707 -17.8066,-39.69368 -39.69368,-39.69368 z m 0,74.42573 c -19.15127,0 -34.73205,-15.58078 -34.73205,-34.73205 0,-19.15127 15.58078,-34.73205 34.73205,-34.73205 19.15127,0 34.73205,15.58078 34.73205,34.73205 0,19.15127 -15.58078,34.73205 -34.73205,34.73205 z"
   style="stroke-width:0.63667786" /><path
   inkscape:connector-curvature="0"
   id="path10"
   d="m 222.46385,218.46386 c 7.97375,-8.80717 12.87808,-20.44246 12.87808,-33.23077 0,-27.35932 -22.25889,-49.61694 -49.61694,-49.61694 -27.35804,0 -49.61694,22.25762 -49.61694,49.61694 0,27.35932 22.2589,49.61694 49.61694,49.61694 12.78831,0 24.42296,-4.90433 33.23077,-12.87808 L 251.4919,254.5081 255,251 Z m -36.73886,11.42454 c -24.62351,0 -44.65531,-20.03307 -44.65531,-44.65531 0,-24.62224 20.0318,-44.65531 44.65531,-44.65531 24.62352,0 44.65531,20.03307 44.65531,44.65531 0,24.62224 -20.03179,44.65531 -44.65531,44.65531 z"
   style="stroke-width:0.63667786" />
<g
   id="g18"
   transform="translate(0,69.261993)">
</g>
<g
   id="g20"
   transform="translate(0,69.261993)">
</g>
<g
   id="g22"
   transform="translate(0,69.261993)">
</g>
<g
   id="g24"
   transform="translate(0,69.261993)">
</g>
<g
   id="g26"
   transform="translate(0,69.261993)">
</g>
<g
   id="g28"
   transform="translate(0,69.261993)">
</g>
<g
   id="g30"
   transform="translate(0,69.261993)">
</g>
<g
   id="g32"
   transform="translate(0,69.261993)">
</g>
<g
   id="g34"
   transform="translate(0,69.261993)">
</g>
<g
   id="g36"
   transform="translate(0,69.261993)">
</g>
<g
   id="g38"
   transform="translate(0,69.261993)">
</g>
<g
   id="g40"
   transform="translate(0,69.261993)">
</g>
<g
   id="g42"
   transform="translate(0,69.261993)">
</g>
<g
   id="g44"
   transform="translate(0,69.261993)">
</g>
<g
   id="g46"
   transform="translate(0,69.261993)">
</g>
<rect
   style="fill:none;fill-opacity:1;stroke:#000000;stroke-width:4.86486483;stroke-linecap:square;stroke-linejoin:miter;stroke-miterlimit:4;stroke-dasharray:9.72972973, 19.45945946000000149;stroke-dashoffset:0;stroke-opacity:1;paint-order:fill markers stroke"
   id="rect1507"
   width="180"
   height="180"
   x="5"
   y="6" /></svg>