<?xml version="1.0" encoding="UTF-8" standalone="no"?>
<!-- Generator: Adobe Illustrator 19.0.0, SVG Export Plug-In . SVG Version: 6.00 Build 0)  -->

<svg
   xmlns:dc="http://purl.org/dc/elements/1.1/"
   xmlns:cc="http://creativecommons.org/ns#"
   xmlns:rdf="http://www.w3.org/1999/02/22-rdf-syntax-ns#"
   xmlns:svg="http://www.w3.org/2000/svg"
   xmlns="http://www.w3.org/2000/svg"
   xmlns:sodipodi="http://sodipodi.sourceforge.net/DTD/sodipodi-0.dtd"
   xmlns:inkscape="http://www.inkscape.org/namespaces/inkscape"
   version="1.1"
   id="Layer_1"
   x="0px"
   y="0px"
   viewBox="0 0 186.738 186.738"
   style="enable-background:new 0 0 186.738 186.738;"
   xml:space="preserve"
   sodipodi:docname="zoom_out.svg"
   inkscape:version="0.92.5 (2060ec1f9f, 2020-04-08)"><metadata
   id="metadata53"><rdf:RDF><cc:Work
       rdf:about=""><dc:format>image/svg+xml</dc:format><dc:type
         rdf:resource="http://purl.org/dc/dcmitype/StillImage" /><dc:title></dc:title></cc:Work></rdf:RDF></metadata><defs
   id="defs51">
	

		
	
			
			
			
			
			
		</defs><sodipodi:namedview
   pagecolor="#ffffff"
   bordercolor="#666666"
   borderopacity="1"
   objecttolerance="10"
   gridtolerance="10"
   guidetolerance="10"
   inkscape:pageopacity="0"
   inkscape:pageshadow="2"
   inkscape:window-width="1341"
   inkscape:window-height="1135"
   id="namedview49"
   showgrid="true"
   inkscape:zoom="0.63190136"
   inkscape:cx="-86.793422"
   inkscape:cy="332.25213"
   inkscape:window-x="0"
   inkscape:window-y="0"
   inkscape:window-maximized="0"
   inkscape:current-layer="Layer_1"><inkscape:grid
     type="xygrid"
     id="grid878" /></sodipodi:namedview>
<path
   inkscape:connector-curvature="0"
   id="path2"
   d="m 77.931,15.586 c -34.377,0 -62.345,27.968 -62.345,62.345 0,34.377 27.968,62.345 62.345,62.345 34.377,0 62.345,-27.968 62.345,-62.345 0,-34.377 -27.968,-62.345 -62.345,-62.345 z m 0,116.897 c -30.08,0 -54.552,-24.472 -54.552,-54.552 0,-30.08 24.472,-54.552 54.552,-54.552 30.08,0 54.552,24.472 54.552,54.552 0,30.08 -24.472,54.552 -54.552,54.552 z" /><rect
   id="rect4"
   height="7.7930002"
   width="77.931007"
   y="74.033997"
   x="38.966"
   style="stroke-width:0.19999874;stroke-miterlimit:4;stroke-dasharray:none" /><path
   inkscape:connector-curvature="0"
   id="path10"
   d="M 135.635,130.125 C 148.159,116.292 155.862,98.017 155.862,77.931 155.862,34.959 120.901,0 77.931,0 34.961,0 0,34.959 0,77.931 c 0,42.972 34.961,77.931 77.931,77.931 20.086,0 38.36,-7.703 52.194,-20.227 l 51.103,51.103 5.51,-5.51 z m -57.704,17.944 c -38.675,0 -70.138,-31.465 -70.138,-70.138 0,-38.673 31.463,-70.138 70.138,-70.138 38.675,0 70.138,31.465 70.138,70.138 0,38.673 -31.463,70.138 -70.138,70.138 z" />
<g
   id="g18">
</g>
<g
   id="g20">
</g>
<g
   id="g22">
</g>
<g
   id="g24">
</g>
<g
   id="g26">
</g>
<g
   id="g28">
</g>
<g
   id="g30">
</g>
<g
   id="g32">
</g>
<g
   id="g34">
</g>
<g
   id="g36">
</g>
<g
   id="g38">
</g>
<g
   id="g40">
</g>
<g
   id="g42">
</g>
<g
   id="g44">
</g>
<g
   id="g46">
</g>
</svg>